<svg xmlns="http://www.w3.org/2000/svg" viewBox="0 0 580 260" fill="none">
  <rect width="580" height="260" rx="12" fill="#f8fafc" stroke="#e2e8f0"/>
  <text x="290" y="24" text-anchor="middle" fill="#64748b" font-size="11" font-weight="600" font-family="system-ui">UML — PRODUKTY A VAZBY</text>
  <rect x="40" y="48" width="200" height="170" rx="6" fill="#fff" stroke="#0d9488" stroke-width="2"/>
  <rect x="40" y="48" width="200" height="30" fill="#0d9488" rx="6"/>
  <rect x="40" y="66" width="200" height="12" fill="#0d9488"/>
  <text x="140" y="68" text-anchor="middle" fill="#fff" font-size="12" font-weight="700" font-family="system-ui">«produkt» TripGoal</text>
  <text x="55" y="98" fill="#0f172a" font-size="11" font-family="monospace">+ id: Integer</text>
  <text x="55" y="118" fill="#0f172a" font-size="11" font-family="monospace">+ name: String</text>
  <text x="55" y="138" fill="#0f172a" font-size="11" font-family="monospace">+ focus: String</text>
  <text x="55" y="158" fill="#0f172a" font-size="11" font-family="monospace">+ difficulty: Enum</text>
  <text x="55" y="178" fill="#64748b" font-size="11" font-family="monospace">+ created_at</text>
  <rect x="340" y="68" width="200" height="150" rx="6" fill="#fff" stroke="#6366f1" stroke-width="2"/>
  <rect x="340" y="68" width="200" height="30" fill="#6366f1" rx="6"/>
  <rect x="340" y="86" width="200" height="12" fill="#6366f1"/>
  <text x="440" y="88" text-anchor="middle" fill="#fff" font-size="12" font-weight="700" font-family="system-ui">«produkt» Destination</text>
  <text x="355" y="118" fill="#0f172a" font-size="11" font-family="monospace">+ id: Integer</text>
  <text x="355" y="138" fill="#0f172a" font-size="11" font-family="monospace">+ name: String</text>
  <text x="355" y="158" fill="#0f172a" font-size="11" font-family="monospace">+ estimatedDurationDays</text>
  <text x="355" y="178" fill="#0f172a" font-size="11" font-family="monospace">+ dailyBudget: Real</text>
  <path d="M240 130 L270 130 L270 155 L340 155" stroke="#d97706" stroke-width="2" fill="none"/>
  <polygon points="335,150 345,155 335,160" fill="#d97706"/>
  <text x="255" y="122" text-anchor="middle" fill="#d97706" font-size="10" font-weight="600" font-family="system-ui">1</text>
  <text x="305" y="172" text-anchor="middle" fill="#d97706" font-size="10" font-weight="600" font-family="system-ui">*</text>
  <text x="290" y="238" text-anchor="middle" fill="#64748b" font-size="10" font-family="system-ui">má mnoho · ON DELETE CASCADE</text>
</svg>
